<svg width="50.000000" height="50.000000" viewBox="0 0 50 50" fill="none" xmlns="http://www.w3.org/2000/svg" xmlns:xlink="http://www.w3.org/1999/xlink">
	<desc>
			Created with Pixso.
	</desc>
	<defs>
		<clipPath id="clip368_117">
			<rect id="Icon/Outline/user-add" width="50.000000" height="50.000000" transform="translate(0.000000 -0.999756)" fill="white" fill-opacity="0"/>
		</clipPath>
	</defs>
	<g clip-path="url(#clip368_117)">
		<path id="Icon" d="M18.75 21.91C14.14 21.91 10.41 18.18 10.41 13.58C10.41 8.98 14.14 5.25 18.75 5.25C23.35 5.25 27.08 8.98 27.08 13.58C27.08 18.18 23.35 21.91 18.75 21.91ZM18.75 28.16C25.65 28.16 31.25 33.76 31.25 40.66L31.25 42.75L6.25 42.75L6.25 40.66C6.25 33.76 11.84 28.16 18.75 28.16ZM37.5 17.75L37.5 24L37.5 30.25M43.75 24L37.5 24M37.5 24L31.25 " stroke="#A0A0A1" stroke-opacity="1.000000" stroke-width="3.000000" stroke-linejoin="round"/>
	</g>
</svg>
