<svg width="50.000000" height="50.000000" viewBox="0 0 50 50" fill="none" xmlns="http://www.w3.org/2000/svg" xmlns:xlink="http://www.w3.org/1999/xlink">
	<desc>
			Created with Pixso.
	</desc>
	<defs>
		<clipPath id="clip368_109">
			<rect id="Icon/Outline/template" width="50.000000" height="50.000000" transform="translate(0.000000 -0.999756)" fill="white" fill-opacity="0"/>
		</clipPath>
	</defs>
	<g clip-path="url(#clip368_109)">
		<path id="Icon" d="M39.58 7.33C40.73 7.33 41.66 8.26 41.66 9.41L41.66 13.58C41.66 14.73 40.73 15.66 39.58 15.66L10.41 15.66C9.26 15.66 8.33 14.73 8.33 13.58L8.33 9.41C8.33 8.26 9.26 7.33 10.41 7.33L39.58 7.33ZM22.91 24C24.06 24 25 24.93 25 26.08L25 38.58C25 39.73 24.06 40.66 22.91 40.66L10.41 40.66C9.26 40.66 8.33 39.73 8.33 38.58L8.33 26.08C8.33 24.93 9.26 24 10.41 24L22.91 24ZM39.58 24C40.73 24 41.66 24.93 41.66 26.08L41.66 38.58C41.66 39.73 40.73 40.66 39.58 40.66L35.41 40.66C34.26 40.66 33.33 39.73 33.33 38.58L33.33 26.08C33.33 24.93 34.26 24 35.41 24L39.58 24Z" stroke="#A0A0A1" stroke-opacity="1.000000" stroke-width="3.000000" stroke-linejoin="round"/>
	</g>
</svg>
