<svg width="50.000000" height="50.000000" viewBox="0 0 50 50" fill="none" xmlns="http://www.w3.org/2000/svg" xmlns:xlink="http://www.w3.org/1999/xlink">
	<desc>
			Created with Pixso.
	</desc>
	<defs>
		<clipPath id="clip368_105">
			<rect id="Icon/Outline/collection" width="50.000000" height="50.000000" transform="translate(0.000000 -0.999756)" fill="white" fill-opacity="0"/>
		</clipPath>
	</defs>
	<g clip-path="url(#clip368_105)">
		<path id="Icon" d="M39.58 21.91C41.88 21.91 43.75 23.78 43.75 26.08L43.75 38.58C43.75 40.88 41.88 42.75 39.58 42.75L10.41 42.75C8.11 42.75 6.25 40.88 6.25 38.58L6.25 26.08C6.25 23.78 8.11 21.91 10.41 21.91L39.58 21.91ZM14.58 13.58L14.58 9.41C14.58 7.11 16.44 5.25 18.75 5.25L31.25 5.25C33.55 5.25 35.41 7.11 35.41 9.41L35.41 13.58M39.58 21.91L39.58 17.75C39.58 15.44 37.71 13.58 35.41 13.58L14.58 13.58C12.28 13.58 10.41 15.44 10.41 17.75L10.41 " stroke="#A0A0A1" stroke-opacity="1.000000" stroke-width="3.000000" stroke-linejoin="round"/>
	</g>
</svg>
