<svg width="50.000000" height="50.000000" viewBox="0 0 50 50" fill="none" xmlns="http://www.w3.org/2000/svg" xmlns:xlink="http://www.w3.org/1999/xlink">
	<desc>
			Created with Pixso.
	</desc>
	<defs>
		<clipPath id="clip368_113">
			<rect id="Icon/Outline/speakerphone" width="50.000000" height="50.000000" transform="translate(0.000000 -0.999756)" fill="white" fill-opacity="0"/>
		</clipPath>
	</defs>
	<g clip-path="url(#clip368_113)">
		<path id="Icon" d="M14.58 11.5C9.98 11.5 6.25 15.23 6.25 19.83C6.25 23.28 8.34 26.23 11.32 27.5C12.32 27.93 13.42 28.16 14.58 28.16L18.4 28.16C26.94 28.16 34.28 30.73 37.5 34.41L37.5 5.25C34.28 8.92 26.94 11.5 18.4 11.5L14.58 11.5ZM22.91 11.25L22.91 39.08C22.91 41.1 21.27 42.75 19.25 42.75C17.7 42.75 16.31 41.77 15.79 40.31L11.32 27.5M37.5 13.58C40.95 13.58 43.75 16.38 43.75 19.83C43.75 23.28 40.95 26.08 37.5 " stroke="#A0A0A1" stroke-opacity="1.000000" stroke-width="3.000000" stroke-linejoin="round"/>
	</g>
</svg>
