<svg width="20.000000" height="20.000000" viewBox="0 0 20 20" fill="none" xmlns="http://www.w3.org/2000/svg" xmlns:xlink="http://www.w3.org/1999/xlink">
	<desc>
			Created with Pixso.
	</desc>
	<defs>
		<clipPath id="clip25_65">
			<rect id="Icon/Solid/download" width="20.000000" height="20.000000" transform="translate(-0.500000 0.000000)" fill="white" fill-opacity="0"/>
		</clipPath>
	</defs>
	<g clip-path="url(#clip25_65)">
		<path id="Icon" d="M2.5 17C2.5 16.44 2.94 16 3.5 16L15.5 16C16.05 16 16.5 16.44 16.5 17C16.5 17.55 16.05 18 15.5 18L3.5 18C2.94 18 2.5 17.55 2.5 17ZM5.79 9.29C6.18 8.9 6.81 8.9 7.2 9.29L8.5 10.58L8.5 3C8.5 2.44 8.94 2 9.5 2C10.05 2 10.5 2.44 10.5 3L10.5 10.58L11.79 9.29C12.18 8.9 12.81 8.9 13.2 9.29C13.59 9.68 13.59 10.31 13.2 10.7L10.2 13.7C10.01 13.89 9.76 14 9.5 14C9.23 14 8.98 13.89 8.79 13.7L5.79 10.7C5.4 10.31 5.4 9.68 5.79 9.29Z" fill="#FFFFFF" fill-opacity="1.000000" fill-rule="evenodd"/>
	</g>
</svg>
