<svg width="42.000000" height="29.000000" viewBox="0 0 42 29" fill="none" xmlns="http://www.w3.org/2000/svg" xmlns:xlink="http://www.w3.org/1999/xlink">
	<desc>
			Created with Pixso.
	</desc>
	<defs/>
	<path id="Vector" d="M14.33 4.22C15.26 4.22 16.11 4.29 16.9 4.5C17.68 4.64 18.32 4.93 18.9 5.28C19.47 5.63 19.89 6.13 20.18 6.77C20.46 7.41 20.61 8.19 20.61 9.04C20.61 10.03 20.4 10.88 19.9 11.51C19.47 12.15 18.76 12.72 17.9 13.14C19.12 13.49 20.04 14.13 20.61 14.98C21.17 15.83 21.53 16.89 21.53 18.1C21.53 19.08 21.32 19.93 20.96 20.64C20.61 21.35 20.03 21.99 19.39 22.41C18.75 22.84 17.96 23.19 17.11 23.4C16.25 23.61 15.4 23.75 14.54 23.75L5 23.77L5 4.22L14.33 4.22ZM13.76 12.15C14.54 12.15 15.19 11.94 15.68 11.58C16.17 11.23 16.39 10.6 16.39 9.82C16.39 9.39 16.32 8.97 16.18 8.69C16.04 8.41 15.83 8.19 15.54 7.98C15.26 7.84 14.97 7.7 14.61 7.63C14.26 7.56 13.9 7.56 13.48 7.56L9.35 7.56L9.35 12.16C9.35 12.15 13.76 12.15 13.76 12.15ZM13.97 20.51C14.4 20.51 14.83 20.44 15.19 20.37C15.54 20.3 15.9 20.16 16.18 19.94C16.46 19.72 16.69 19.51 16.9 19.16C17.04 18.81 17.18 18.38 17.18 17.89C17.18 16.9 16.9 16.19 16.32 15.69C15.75 15.26 14.97 15.05 14.04 15.05L9.35 15.05L9.35 20.5L13.97 20.5L13.97 20.51Z" fill="#FFFFFF" fill-opacity="1.000000" fill-rule="nonzero"/>
	<path id="Vector" d="M27.31 19.95C27.89 20.52 28.74 20.8 29.88 20.8C30.66 20.8 31.38 20.59 31.95 20.23C32.52 19.8 32.87 19.38 33.01 18.95L36.5 18.95C35.93 20.65 35.08 21.86 33.94 22.64C32.8 23.35 31.45 23.77 29.81 23.77C28.67 23.77 27.67 23.56 26.74 23.2C25.82 22.85 25.1 22.35 24.46 21.64C23.82 21 23.32 20.22 23.03 19.3C22.68 18.38 22.53 17.39 22.53 16.26C22.53 15.2 22.67 14.2 23.03 13.28C23.39 12.36 23.89 11.58 24.53 10.88C25.17 10.24 25.96 9.67 26.81 9.32C27.74 8.97 28.66 8.75 29.81 8.75C31.02 8.75 32.09 8.96 33.01 9.46C33.94 9.96 34.65 10.52 35.23 11.37C35.8 12.14 36.22 13.06 36.51 14.05C36.65 15.04 36.72 16.04 36.65 17.17L26.32 17.17C26.32 18.32 26.74 19.38 27.31 19.95ZM31.81 12.51C31.3 12.01 30.52 11.73 29.6 11.73C28.95 11.73 28.46 11.87 28.03 12.08C27.6 12.29 27.31 12.58 27.03 12.86C26.75 13.14 26.6 13.5 26.53 13.85C26.46 14.2 26.39 14.49 26.39 14.77L32.8 14.77C32.66 13.72 32.3 13.01 31.81 12.51ZM25.53 5.08L33.52 5.08L33.52 6.99L25.53 6.99L25.53 5.08Z" fill="#FFFFFF" fill-opacity="1.000000" fill-rule="nonzero"/>
</svg>
