<svg width="35.000000" height="33.000000" viewBox="0 0 35 33" fill="none" xmlns="http://www.w3.org/2000/svg" xmlns:xlink="http://www.w3.org/1999/xlink">
	<desc>
			Created with Pixso.
	</desc>
	<defs/>
	<path id="Vector" d="M27.75 6.16L27.75 25.83C27.75 26.28 27.57 26.72 27.25 27.03C26.94 27.35 26.5 27.53 26.05 27.53L6.38 27.53C5.93 27.53 5.49 27.35 5.18 27.03C4.86 26.72 4.68 26.28 4.68 25.83L4.68 6.16C4.68 5.71 4.86 5.27 5.18 4.96C5.49 4.64 5.93 4.46 6.38 4.46L26.05 4.46C26.5 4.46 26.94 4.64 27.25 4.96C27.57 5.27 27.75 5.71 27.75 6.16ZM11.47 13.28L8.07 13.28L8.07 24.14L11.47 24.14L11.47 13.28ZM11.77 9.55C11.77 9.29 11.72 9.04 11.63 8.8C11.53 8.56 11.39 8.35 11.21 8.16C11.03 7.98 10.81 7.83 10.58 7.74C10.34 7.64 10.09 7.58 9.83 7.58L9.77 7.58C9.25 7.58 8.75 7.79 8.38 8.16C8.01 8.53 7.8 9.03 7.8 9.55C7.8 10.07 8.01 10.57 8.38 10.94C8.75 11.31 9.25 11.52 9.77 11.52C10.03 11.52 10.28 11.48 10.52 11.39C10.76 11.29 10.98 11.16 11.16 10.98C11.35 10.8 11.5 10.59 11.6 10.35C11.71 10.12 11.76 9.87 11.77 9.61L11.77 9.55ZM24.36 17.54C24.36 14.28 22.28 13.01 20.22 13.01C19.54 12.98 18.87 13.12 18.27 13.43C17.67 13.73 17.15 14.19 16.79 14.76L16.69 14.76L16.69 13.28L13.5 13.28L13.5 24.14L16.89 24.14L16.89 18.36C16.84 17.77 17.03 17.19 17.41 16.73C17.79 16.28 18.34 15.99 18.93 15.93L19.06 15.93C20.14 15.93 20.94 16.61 20.94 18.32L20.94 24.14L24.33 24.14L24.36 17.54Z" fill="#FFFFFF" fill-opacity="1.000000" fill-rule="nonzero"/>
</svg>
