<svg width="112.000000" height="32.000000" viewBox="0 0 112 32" fill="none" xmlns="http://www.w3.org/2000/svg" xmlns:xlink="http://www.w3.org/1999/xlink">
	<desc>
			Created with Pixso.
	</desc>
	<defs/>
	<path id="Miguel UI" d="M23.91 8.88Q24.36 9.11 24.93 9.11Q25.52 9.11 25.98 8.86Q26.21 8.74 26.41 8.55Q26.68 8.29 26.82 7.98Q27 7.6 27 7.15Q27 6.68 26.82 6.3Q26.67 5.99 26.41 5.74Q26.21 5.55 25.98 5.43Q25.52 5.18 24.93 5.18Q24.36 5.18 23.91 5.41Q23.66 5.54 23.45 5.74Q23.2 5.99 23.05 6.29Q22.87 6.68 22.87 7.15Q22.87 7.61 23.04 7.99Q23.19 8.3 23.45 8.55Q23.66 8.75 23.91 8.88ZM80.2 24L80.2 6.24L76.85 6.24L76.85 24L80.2 24ZM19.92 24L19.92 7.24L16.13 7.24L10.79 19.7L5.47 7.24L1.65 7.24L1.65 24L5.01 24L5.01 13.1L9.52 24L12.07 24L16.55 13.1L16.55 24L19.92 24ZM92.54 17.61L92.54 7.24L89.18 7.24L89.18 17.58Q89.18 19.72 90.07 21.2Q90.56 22.02 91.25 22.61Q91.8 23.09 92.48 23.42Q92.54 23.45 92.6 23.48Q94.08 24.16 95.87 24.16Q97.74 24.16 99.27 23.44Q99.3 23.43 99.32 23.42Q100.02 23.09 100.59 22.6Q101.28 22.01 101.79 21.2Q102.72 19.72 102.72 17.58L102.72 7.24L99.33 7.24L99.33 17.61Q99.33 19.23 98.52 20.13Q98.48 20.17 98.44 20.22Q98.35 20.31 98.25 20.39Q97.39 21.11 95.92 21.11Q94.52 21.11 93.66 20.43Q93.54 20.33 93.42 20.22Q93.39 20.18 93.35 20.14Q92.54 19.24 92.54 17.61ZM109.32 24L109.32 7.24L105.96 7.24L105.96 24L109.32 24ZM37.72 11.08Q36.59 10.48 35.1 10.48Q33.98 10.48 32.99 10.85Q32.49 11.04 32.02 11.33Q31.73 11.5 31.46 11.72Q30.47 12.5 29.84 13.72Q29.03 15.28 29.03 17.3Q29.03 19.34 29.84 20.91Q30.45 22.11 31.41 22.9Q31.71 23.15 32.03 23.35Q32.63 23.72 33.27 23.93Q34.14 24.21 35.1 24.21Q36.53 24.21 37.65 23.62Q37.68 23.61 37.71 23.59Q38.85 22.96 39.5 22.03L39.5 24.09Q39.5 25.81 38.64 26.69Q38.61 26.71 38.58 26.74Q38.36 26.95 38.1 27.12Q37.32 27.62 36.21 27.62Q34.96 27.62 34.08 27.08Q33.51 26.72 33.2 26.21Q33.04 25.94 32.95 25.63L29.61 25.63Q29.74 26.85 30.31 27.79Q30.82 28.61 31.66 29.23Q33.48 30.55 36.31 30.55Q38.42 30.55 39.91 29.69Q40.87 29.14 41.53 28.34Q41.88 27.9 42.14 27.39Q42.89 25.94 42.89 24.09L42.89 10.7L39.5 10.7L39.5 12.59Q39.48 12.57 39.46 12.54Q38.82 11.65 37.72 11.08ZM74.3 18.35Q74.39 17.78 74.39 17.06Q74.39 15.17 73.61 13.69Q73.59 13.65 73.56 13.61Q73.14 12.85 72.54 12.26Q71.97 11.7 71.24 11.3Q71.1 11.22 70.96 11.16Q69.56 10.48 67.84 10.48Q65.92 10.48 64.43 11.29Q64.4 11.31 64.36 11.33Q63.73 11.68 63.21 12.16Q62.5 12.82 62.01 13.72Q61.17 15.28 61.17 17.34Q61.17 19.39 62.02 20.95Q62.5 21.82 63.18 22.47Q63.72 22.98 64.4 23.36Q64.6 23.47 64.8 23.57Q66.17 24.21 67.84 24.21Q69.86 24.21 71.33 23.32Q71.6 23.16 71.85 22.98Q72.75 22.29 73.33 21.4Q73.8 20.67 74.06 19.82L70.43 19.82Q70.07 20.56 69.47 20.97Q68.78 21.43 67.77 21.43Q66.94 21.43 66.27 21.09Q65.9 20.91 65.58 20.61Q65.43 20.47 65.3 20.31Q64.68 19.54 64.58 18.35L74.3 18.35ZM26.59 24L26.59 10.7L23.23 10.7L23.23 24L26.59 24ZM58.72 24L58.72 10.7L55.34 10.7L55.34 18.02Q55.34 19.59 54.55 20.45Q54.55 20.45 54.55 20.46Q54.37 20.65 54.16 20.8Q53.44 21.31 52.36 21.31Q51.34 21.31 50.64 20.83Q50.41 20.67 50.2 20.46Q50.2 20.45 50.2 20.45Q49.41 19.59 49.41 18.02L49.41 10.7L46.05 10.7L46.05 18.5Q46.05 20.27 46.74 21.56Q47.21 22.45 47.93 23.04Q48.25 23.3 48.62 23.5Q48.64 23.51 48.66 23.52Q49.84 24.16 51.38 24.16Q52.37 24.16 53.24 23.84Q53.44 23.77 53.64 23.67Q54.47 23.29 55.05 22.67Q55.2 22.5 55.34 22.31L55.34 24L58.72 24ZM70.55 14.71Q70.9 15.31 70.91 16.1L64.6 16.1Q64.77 14.95 65.41 14.24Q65.52 14.11 65.65 14Q65.92 13.76 66.23 13.59Q66.89 13.24 67.74 13.24Q68.68 13.24 69.41 13.63Q69.71 13.79 69.98 14.02Q70.33 14.33 70.55 14.71ZM39.02 15.25Q39.5 16.13 39.5 17.34Q39.5 18.57 39.02 19.45Q38.68 20.06 38.18 20.47Q37.97 20.65 37.72 20.79Q37.31 21.03 36.86 21.15Q36.43 21.26 35.97 21.26Q35.59 21.26 35.23 21.17Q34.72 21.06 34.25 20.78Q34.11 20.69 33.97 20.59Q33.36 20.13 32.96 19.4Q32.47 18.5 32.47 17.3Q32.47 16.1 32.96 15.22Q33.37 14.48 34 14.05Q34.12 13.97 34.24 13.89Q34.56 13.71 34.91 13.6Q35.41 13.44 35.97 13.44Q36.43 13.44 36.86 13.55Q37.31 13.67 37.72 13.91Q37.96 14.04 38.16 14.21Q38.67 14.62 39.02 15.25Z" fill="#FFFFFF" fill-opacity="1.000000" fill-rule="evenodd"/>
</svg>
