<svg width="33.000000" height="35.000000" viewBox="0 0 33 35" fill="none" xmlns="http://www.w3.org/2000/svg" xmlns:xlink="http://www.w3.org/1999/xlink">
	<desc>
			Created with Pixso.
	</desc>
	<defs/>
	<rect id="figma_logo" width="16.000164" height="24.000244" transform="translate(8.219727 5.000000)" fill="#FFFFFF" fill-opacity="0"/>
	<path id="Vector" d="M17.39 14.17C18.14 13.42 19.15 12.99 20.21 12.99C21.28 12.99 22.29 13.42 23.04 14.17C23.79 14.92 24.21 15.93 24.21 16.99C24.21 18.06 23.79 19.07 23.04 19.82C22.29 20.57 21.28 20.99 20.21 20.99C19.15 20.99 18.14 20.57 17.39 19.82C16.64 19.07 16.21 18.06 16.21 16.99C16.21 15.93 16.64 14.92 17.39 14.17Z" stroke="#FFFFFF" stroke-opacity="1.000000" stroke-width="1.120011"/>
	<path id="Vector" d="M9.39 22.17C10.14 21.42 11.15 21 12.21 21L16.21 21L16.21 25C16.21 26.06 15.79 27.07 15.04 27.82C14.29 28.57 13.28 29 12.21 29C11.15 29 10.14 28.57 9.39 27.82C8.64 27.07 8.21 26.06 8.21 25C8.21 23.93 8.64 22.92 9.39 22.17Z" stroke="#FFFFFF" stroke-opacity="1.000000" stroke-width="1.120011"/>
	<path id="Vector" d="M16.21 13L20.21 13C21.28 13 22.29 12.57 23.04 11.82C23.79 11.07 24.21 10.06 24.21 9C24.21 7.93 23.79 6.92 23.04 6.17C22.29 5.42 21.28 5 20.21 5L16.21 5L16.21 13Z" stroke="#FFFFFF" stroke-opacity="1.000000" stroke-width="1.120011"/>
	<path id="Vector" d="M9.39 11.82C10.14 12.57 11.15 13 12.21 13L16.21 13L16.21 5L12.21 5C11.15 5 10.14 5.42 9.39 6.17C8.64 6.92 8.21 7.93 8.21 9C8.21 10.06 8.64 11.07 9.39 11.82Z" stroke="#FFFFFF" stroke-opacity="1.000000" stroke-width="1.120011"/>
	<path id="Vector" d="M9.39 19.82C10.14 20.57 11.15 20.99 12.21 20.99L16.21 20.99L16.21 12.99L12.21 12.99C11.15 12.99 10.14 13.42 9.39 14.17C8.64 14.92 8.21 15.93 8.21 16.99C8.21 18.06 8.64 19.07 9.39 19.82Z" stroke="#FFFFFF" stroke-opacity="1.000000" stroke-width="1.120011"/>
</svg>
