<svg width="50.000000" height="50.000000" viewBox="0 0 50 50" fill="none" xmlns="http://www.w3.org/2000/svg" xmlns:xlink="http://www.w3.org/1999/xlink">
	<desc>
			Created with Pixso.
	</desc>
	<defs>
		<clipPath id="clip178_121">
			<rect id="Icon/Outline/user-add" width="50.000000" height="50.000000" fill="white" fill-opacity="0"/>
		</clipPath>
	</defs>
	<g clip-path="url(#clip178_121)">
		<path id="Icon" d="M18.75 22.91C14.14 22.91 10.41 19.18 10.41 14.58C10.41 9.98 14.14 6.25 18.75 6.25C23.35 6.25 27.08 9.98 27.08 14.58C27.08 19.18 23.35 22.91 18.75 22.91ZM18.75 29.16C25.65 29.16 31.25 34.76 31.25 41.66L31.25 43.75L6.25 43.75L6.25 41.66C6.25 34.76 11.84 29.16 18.75 29.16ZM37.5 18.75L37.5 25L37.5 31.25M43.75 25L37.5 25M37.5 25L31.25 25" stroke="#A0A0A1" stroke-opacity="1.000000" stroke-width="3.000000" stroke-linejoin="round"/>
	</g>
</svg>
