<svg width="50.000000" height="50.000000" viewBox="0 0 50 50" fill="none" xmlns="http://www.w3.org/2000/svg" xmlns:xlink="http://www.w3.org/1999/xlink">
	<desc>
			Created with Pixso.
	</desc>
	<defs>
		<clipPath id="clip178_91">
			<rect id="Icon/Outline/speakerphone" width="50.000000" height="50.000000" fill="white" fill-opacity="0"/>
		</clipPath>
	</defs>
	<g clip-path="url(#clip178_91)">
		<path id="Icon" d="M14.58 12.5C9.98 12.5 6.25 16.23 6.25 20.83C6.25 24.27 8.34 27.23 11.32 28.5C12.32 28.93 13.42 29.16 14.58 29.16L18.4 29.16C26.94 29.16 34.28 31.73 37.5 35.41L37.5 6.25C34.28 9.92 26.94 12.5 18.4 12.5L14.58 12.5ZM22.91 12.25L22.91 40.08C22.91 42.1 21.27 43.75 19.25 43.75C17.7 43.75 16.31 42.77 15.79 41.31L11.32 28.5M37.5 14.58C40.95 14.58 43.75 17.38 43.75 20.83C43.75 24.28 40.95 27.08 37.5 27.08" stroke="#A0A0A1" stroke-opacity="1.000000" stroke-width="3.000000" stroke-linejoin="round"/>
	</g>
</svg>
