<svg width="50.000000" height="50.000000" viewBox="0 0 50 50" fill="none" xmlns="http://www.w3.org/2000/svg" xmlns:xlink="http://www.w3.org/1999/xlink">
	<desc>
			Created with Pixso.
	</desc>
	<defs>
		<clipPath id="clip178_83">
			<rect id="Icon/Outline/collection" width="50.000000" height="50.000000" fill="white" fill-opacity="0"/>
		</clipPath>
	</defs>
	<g clip-path="url(#clip178_83)">
		<path id="Icon" d="M39.58 22.91C41.88 22.91 43.75 24.78 43.75 27.08L43.75 39.58C43.75 41.88 41.88 43.75 39.58 43.75L10.41 43.75C8.11 43.75 6.25 41.88 6.25 39.58L6.25 27.08C6.25 24.78 8.11 22.91 10.41 22.91L39.58 22.91ZM14.58 14.58L14.58 10.41C14.58 8.11 16.44 6.25 18.75 6.25L31.25 6.25C33.55 6.25 35.41 8.11 35.41 10.41L35.41 14.58M39.58 22.91L39.58 18.75C39.58 16.44 37.71 14.58 35.41 14.58L14.58 14.58C12.28 14.58 10.41 16.44 10.41 18.75L10.41 22.91" stroke="#A0A0A1" stroke-opacity="1.000000" stroke-width="3.000000" stroke-linejoin="round"/>
	</g>
</svg>
